<svg id="Capa_1" data-name="Capa 1" xmlns="http://www.w3.org/2000/svg" viewBox="0 0 481.03 491.58"><defs><style>.cls-1{fill:#ffc344;}.cls-2{fill:#fbf2a8;}.cls-3{fill:#edb6a8;}.cls-4{fill:#3ac7a4;}.cls-5{fill:#fff;}.cls-6{fill:#cd9fc5;}.cls-7{fill:#508497;}.cls-8{fill:#6199b5;}.cls-9{fill:#eebdfa;}.cls-10{fill:#f4d5cb;}.cls-11{fill:#ce7295;}.cls-12{fill:#ce8172;}.cls-13{fill:#84eac4;}.cls-14{fill:#bdf4e3;}</style></defs><title>Franco</title><path class="cls-1" d="M367.13,502.83V472.05a113.88,113.88,0,1,0-227.76,0v30.78Z" transform="translate(-20.71 -20.42)"/><path class="cls-2" d="M329.27,502.83V473.74a76,76,0,0,0-152,0v29.09Z" transform="translate(-20.71 -20.42)"/><path class="cls-3" d="M261.23,398.14c22,9.89,37.45,33.37,37.45,60.75v6.59a18.58,18.58,0,0,1-18.57,18.58H177.24v18.77h152V473.74a76,76,0,0,0-68-75.59Z" transform="translate(-20.71 -20.42)"/><path class="cls-4" d="M391.52,153.34a62.21,62.21,0,1,0-102-70.2c-4.95,8.93-68.13,6.9-74-2.61A62.22,62.22,0,1,0,115,153.35a6,6,0,0,1-.24,8.05A146.82,146.82,0,0,0,220.63,409.92h65.25A146.82,146.82,0,0,0,391.77,161.4a6,6,0,0,1-.24-8.06Z" transform="translate(-20.71 -20.42)"/><circle class="cls-5" cx="141.22" cy="91.67" r="33.31"/><circle class="cls-6" cx="141.22" cy="91.67" r="17.4"/><circle class="cls-5" cx="323.63" cy="91.69" r="33.31"/><path class="cls-7" d="M255,166.9c-7.68,0-15.36-2.41-22.82-7.23a6.08,6.08,0,0,1,6.59-10.21c11.07,7.15,21.38,7.15,32.45,0a6.08,6.08,0,0,1,6.59,10.21c-7.46,4.82-15.14,7.23-22.81,7.23Z" transform="translate(-20.71 -20.42)"/><path class="cls-8" d="M391.76,161.4a6,6,0,0,1-.24-8.06,62.2,62.2,0,0,0-66.85-99.22,54.28,54.28,0,0,1,29.58,25.44c.15.27.3.55.46.82,5.62,5.91,9.7,13.77,9.94,21.91.42,13.82-3.57,28.92-11.78,38.65-1.45,1.72-6.54,2.46-5.47,4.32a5.24,5.24,0,0,0,.76,1A126.68,126.68,0,0,1,256.79,360.7h-56.3A126.69,126.69,0,0,1,74.58,248,146.81,146.81,0,0,0,220.63,409.92h65.25A146.81,146.81,0,0,0,391.76,161.4Z" transform="translate(-20.71 -20.42)"/><path class="cls-9" d="M360.55,103.07A53.49,53.49,0,0,1,348,139.32a5.17,5.17,0,0,0-.54,5.93,33.31,33.31,0,0,0,7.27-64.85,53,53,0,0,1,5.87,22.67Z" transform="translate(-20.71 -20.42)"/><circle class="cls-6" cx="323.74" cy="91.72" r="17.41"/><path class="cls-10" d="M312,372.53H194.5a71.48,71.48,0,0,1,0-142.95H312a71.48,71.48,0,1,1,0,142.95Z" transform="translate(-20.71 -20.42)"/><circle class="cls-11" cx="167.01" cy="321.03" r="16.14" transform="translate(-90.08 26.61) rotate(-13.3)"/><circle class="cls-11" cx="318.75" cy="300.74" r="16.14"/><path class="cls-11" d="M180.05,279.44a6.09,6.09,0,0,1-2.76-.66,24,24,0,0,0-20.66,0,6.07,6.07,0,0,1-5.5-10.83,36.11,36.11,0,0,1,31.68,0,6.07,6.07,0,0,1-2.76,11.48Z" transform="translate(-20.71 -20.42)"/><path class="cls-11" d="M326.45,279.44A6.08,6.08,0,0,1,323.69,268a36.2,36.2,0,0,1,31.68,0,6.08,6.08,0,0,1-5.53,10.83,26.06,26.06,0,0,0-10.31-2.33,25.69,25.69,0,0,0-10.32,2.33,6.06,6.06,0,0,1-2.76.66Z" transform="translate(-20.71 -20.42)"/><path class="cls-11" d="M253.25,343.37A22.25,22.25,0,0,1,231,321.15a6.08,6.08,0,1,1,12.15,0,10.07,10.07,0,1,0,20.14,0,6.08,6.08,0,1,1,12.15,0,22.25,22.25,0,0,1-22.22,22.22Z" transform="translate(-20.71 -20.42)"/><path class="cls-5" d="M121.07,239.71a9.87,9.87,0,0,1-2.08-.22,10.13,10.13,0,0,1-7.85-12,77.41,77.41,0,0,1,4.53-14.23,10.13,10.13,0,0,1,18.65,7.91A55.87,55.87,0,0,0,131,231.65,10.14,10.14,0,0,1,121.07,239.71Z" transform="translate(-20.71 -20.42)"/><path class="cls-5" d="M142.22,200.23a10.13,10.13,0,0,1-7.9-16.45c.88-1.1,1.76-2.15,2.64-3.14A10.12,10.12,0,0,1,152.14,194c-.66.75-1.33,1.55-2,2.39a10.1,10.1,0,0,1-7.91,3.8Z" transform="translate(-20.71 -20.42)"/><circle class="cls-12" cx="260.93" cy="425.31" r="9.19"/><circle class="cls-12" cx="260.76" cy="459.96" r="9.19"/><path class="cls-12" d="M253.25,512a6.08,6.08,0,0,1-6.07-6.08V412.71a6.08,6.08,0,0,1,12.15,0v93.21A6.08,6.08,0,0,1,253.25,512Z" transform="translate(-20.71 -20.42)"/><circle class="cls-13" cx="440.17" cy="39.2" r="18.78" transform="translate(310.33 447) rotate(-80.79)"/><circle class="cls-13" cx="206.43" cy="18.36" r="7.95"/><path class="cls-14" d="M476.24,96.58l6.38,17.94a2.88,2.88,0,0,0,1.49,1.69l15.94,7.18a3.18,3.18,0,0,1,0,5.62l-15.94,7.18a2.83,2.83,0,0,0-1.49,1.68l-6.38,17.94a2.59,2.59,0,0,1-5,0l-6.38-17.94a2.88,2.88,0,0,0-1.5-1.68L447.43,129a3.18,3.18,0,0,1,0-5.62l15.94-7.18a2.93,2.93,0,0,0,1.5-1.69l6.38-17.94A2.59,2.59,0,0,1,476.24,96.58Z" transform="translate(-20.71 -20.42)"/><path class="cls-14" d="M51.2,33.6l6.38,17.94a2.89,2.89,0,0,0,1.5,1.69L75,60.41A3.18,3.18,0,0,1,75,66L59.08,73.2a2.89,2.89,0,0,0-1.5,1.69L51.2,92.83a2.59,2.59,0,0,1-5,0L39.83,74.89a2.88,2.88,0,0,0-1.49-1.69L22.4,66a3.17,3.17,0,0,1,0-5.61l15.93-7.19a2.82,2.82,0,0,0,1.5-1.68L46.21,33.6A2.59,2.59,0,0,1,51.2,33.6Z" transform="translate(-20.71 -20.42)"/></svg>