<svg id="Capa_1" data-name="Capa 1" xmlns="http://www.w3.org/2000/svg" viewBox="0 0 504 492.08"><defs><style>.cls-1{fill:#b2e7f1;}.cls-2{fill:#93cbe4;}.cls-3{fill:#b196f5;}.cls-4{fill:#f4d5cb;}.cls-5{fill:#ffc344;}.cls-6{fill:#ebaa66;}.cls-7{fill:#9762e2;}.cls-8{fill:#ce7295;}.cls-9{fill:#ce824b;}.cls-10{fill:#fff;}.cls-11{fill:#fe8893;}</style></defs><title>Paulina</title><ellipse class="cls-1" cx="395.98" cy="468.6" rx="32.02" ry="39.87" transform="translate(-163.31 715.17) rotate(-74.52)"/><ellipse class="cls-1" cx="390.88" cy="411.24" rx="58.25" ry="32.98" transform="translate(-155.26 240.57) rotate(-30)"/><path class="cls-2" d="M366.51,458.14c-14.14,0-25.68-4.93-31.33-14.72a6.08,6.08,0,1,1,10.52-6.08c7.3,12.63,34.15,11.36,58.64-2.79a6.08,6.08,0,0,1,6.08,10.53c-15.12,8.72-30.66,13.06-43.91,13.06Z" transform="translate(-2 -9.97)"/><ellipse class="cls-1" cx="114" cy="468.54" rx="39.87" ry="32.02" transform="translate(-122.93 37.46) rotate(-15.48)"/><ellipse class="cls-1" cx="118.62" cy="411.26" rx="32.98" ry="58.25" transform="translate(-298.85 298.38) rotate(-60)"/><path class="cls-2" d="M143.12,458.12h-.53c-13.67-.11-29.12-4.75-43.48-13a6.08,6.08,0,0,1,6.07-10.53c12.58,7.27,25.9,11.32,37.51,11.42,10.35.11,17.86-3,21.13-8.63a6.08,6.08,0,0,1,10.52,6.08C168.86,452.91,157.78,458.12,143.12,458.12Z" transform="translate(-2 -9.97)"/><path class="cls-3" d="M131,73.48l17.9-7.33,25.38,62-17.9,7.33Z" transform="translate(-2 -9.97)"/><circle class="cls-3" cx="136" cy="55.47" r="20.63"/><path class="cls-3" d="M353.18,135.55l-17.9-7.33,25.38-62,17.9,7.33Z" transform="translate(-2 -9.97)"/><path class="cls-3" d="M351.44,60.49a20.63,20.63,0,1,0,25-15.07A20.63,20.63,0,0,0,351.44,60.49Z" transform="translate(-2 -9.97)"/><path class="cls-4" d="M370.84,502.05V470.66a116.08,116.08,0,0,0-232.16,0v31.39Z" transform="translate(-2 -9.97)"/><path class="cls-5" d="M326.25,496.56V472.3c0-30.44-11.56-56.69-37.1-69.36A77.51,77.51,0,0,0,177.28,472.4v29.65Z" transform="translate(-2 -9.97)"/><path class="cls-3" d="M332.24,478.44v-6a77.25,77.25,0,0,0-5.55-28.81H182.83a77.25,77.25,0,0,0-5.55,28.81v6Z" transform="translate(-2 -9.97)"/><path class="cls-6" d="M312.4,473.52c-16.86,3.82-17.44,4.38-18.06,4.91a18.83,18.83,0,0,1-12.2,4.48H177.28v19.14h155V478.44Z" transform="translate(-2 -9.97)"/><path class="cls-6" d="M311,450.67c-.19-.51,15.86-6.58,15.65-7.08a77.53,77.53,0,0,0-63.8-48.25c18.65,8.39,32.69,26.36,36.88,48.25.1.5,11.27,7.09,11.27,7.09Z" transform="translate(-2 -9.97)"/><path class="cls-7" d="M332.15,468.61c0-.12,0-.24,0-.36a77.47,77.47,0,0,0-5.44-24.66H299.77a73,73,0,0,1,1.3,13.67V464a18.9,18.9,0,0,1-6.73,14.46h37.9v-6h0q0-1.9-.09-3.78Z" transform="translate(-2 -9.97)"/><circle class="cls-4" cx="421.55" cy="298.33" r="38.45"/><circle class="cls-4" cx="84.18" cy="298.52" r="38.45"/><path class="cls-5" d="M288.46,406.41h-67.4a151.65,151.65,0,1,1,0-303.29h67.4a151.65,151.65,0,1,1,0,303.29Z" transform="translate(-2 -9.97)"/><path class="cls-6" d="M288.46,103.12H258.58a131,131,0,1,1,0,261.92H200.38A131,131,0,0,1,69.79,244.1c-.24,3.53-.38,7.08-.38,10.66h0A151.65,151.65,0,0,0,221.06,406.41h67.4A151.65,151.65,0,0,0,440.11,254.76h0A151.65,151.65,0,0,0,288.46,103.12Z" transform="translate(-2 -9.97)"/><path class="cls-4" d="M315.44,367.79H194.08a73.83,73.83,0,1,1,0-147.65H315.44a73.83,73.83,0,1,1,0,147.65Z" transform="translate(-2 -9.97)"/><circle class="cls-8" cx="164.82" cy="306.89" r="16.46"/><path class="cls-8" d="M359.16,316.86A16.46,16.46,0,1,1,342.7,300.4,16.45,16.45,0,0,1,359.16,316.86Z" transform="translate(-2 -9.97)"/><path class="cls-8" d="M180.15,274.23a6.06,6.06,0,0,1-2.76-.66,26.51,26.51,0,0,0-10.57-2.39,26.78,26.78,0,0,0-10.6,2.4,6.08,6.08,0,0,1-5.5-10.84,36.77,36.77,0,0,1,32.19,0,6.08,6.08,0,0,1-2.77,11.49Z" transform="translate(-2 -9.97)"/><path class="cls-8" d="M356,274.23a6.09,6.09,0,0,1-2.76-.66,24.57,24.57,0,0,0-21.16,0,6.08,6.08,0,0,1-5.5-10.84,36.77,36.77,0,0,1,32.19,0A6.08,6.08,0,0,1,356,274.23Z" transform="translate(-2 -9.97)"/><path class="cls-8" d="M254.76,339.39a22.56,22.56,0,0,1-22.53-22.53,6.08,6.08,0,1,1,12.15,0,10.38,10.38,0,0,0,20.76,0,6.08,6.08,0,1,1,12.15,0,22.56,22.56,0,0,1-22.53,22.53Z" transform="translate(-2 -9.97)"/><path class="cls-9" d="M347.24,175a6.08,6.08,0,0,1-6.07-6.08v-10.6a6.08,6.08,0,1,1,12.15,0v10.6A6.08,6.08,0,0,1,347.24,175Z" transform="translate(-2 -9.97)"/><path class="cls-9" d="M379.56,215.18a6.08,6.08,0,0,1-6.07-6.08V198.49a6.08,6.08,0,0,1,12.15,0V209.1A6.08,6.08,0,0,1,379.56,215.18Z" transform="translate(-2 -9.97)"/><path class="cls-9" d="M308.54,191.47a6.08,6.08,0,0,1-6.08-6.07V174.79a6.08,6.08,0,1,1,12.16,0V185.4A6.08,6.08,0,0,1,308.54,191.47Z" transform="translate(-2 -9.97)"/><path class="cls-10" d="M177.45,161.16a10.13,10.13,0,0,1-2.27-20,80.4,80.4,0,0,1,12.64-1.85,10.12,10.12,0,1,1,1.35,20.2,59.87,59.87,0,0,0-9.43,1.39,10,10,0,0,1-2.29.26Z" transform="translate(-2 -9.97)"/><path class="cls-10" d="M124.55,206.56a10.13,10.13,0,0,1-9.21-14.32,95.45,95.45,0,0,1,20.21-28.55,10.13,10.13,0,1,1,14.21,14.44,75.35,75.35,0,0,0-16,22.49A10.14,10.14,0,0,1,124.55,206.56Z" transform="translate(-2 -9.97)"/><path class="cls-11" d="M43.11,72l8.61,24.18a3.82,3.82,0,0,0,2,2.27l21.49,9.68a4.29,4.29,0,0,1,0,7.58l-21.49,9.68a3.82,3.82,0,0,0-2,2.27l-8.61,24.19a3.49,3.49,0,0,1-6.72,0l-8.61-24.19a3.84,3.84,0,0,0-2-2.27L4.28,115.69a4.29,4.29,0,0,1,0-7.58l21.49-9.68a3.82,3.82,0,0,0,2-2.27L36.39,72A3.48,3.48,0,0,1,43.11,72Z" transform="translate(-2 -9.97)"/><circle class="cls-11" cx="440.11" cy="47.16" r="18.78" transform="translate(347.61 470.46) rotate(-84.32)"/><circle class="cls-5" cx="206.08" cy="7.95" r="7.95"/><path class="cls-5" d="M480.49,119.79l6.38,17.94a2.93,2.93,0,0,0,1.5,1.69l15.94,7.18a3.18,3.18,0,0,1,0,5.62l-15.94,7.18a2.94,2.94,0,0,0-1.5,1.68L480.49,179a2.59,2.59,0,0,1-5,0l-6.38-17.94a2.89,2.89,0,0,0-1.49-1.68l-15.94-7.18a3.18,3.18,0,0,1,0-5.62l15.94-7.18a2.88,2.88,0,0,0,1.49-1.69l6.38-17.94A2.59,2.59,0,0,1,480.49,119.79Z" transform="translate(-2 -9.97)"/></svg>