<svg xmlns="http://www.w3.org/2000/svg" xmlns:xlink="http://www.w3.org/1999/xlink" viewBox="0 0 3710 3710"><defs><style>.cls-1{fill:url(#linear-gradient);}.cls-2{fill:none;}.cls-3{isolation:isolate;}.cls-4,.cls-41{fill:#fff;}.cls-5{fill:#f4f7fa;}.cls-6{clip-path:url(#clip-path);}.cls-7{fill:url(#linear-gradient-3);}.cls-41,.cls-8{opacity:0.5;}.cls-8{mix-blend-mode:soft-light;}.cls-9{fill:#beb8f2;}.cls-10{fill:url(#linear-gradient-4);}.cls-11{clip-path:url(#clip-path-2);}.cls-12{fill:#fcfdfe;}.cls-13{fill:url(#linear-gradient-5);}.cls-14{clip-path:url(#clip-path-3);}.cls-15{fill:url(#linear-gradient-6);}.cls-16{fill:url(#linear-gradient-7);}.cls-17{fill:url(#linear-gradient-8);}.cls-18{fill:url(#linear-gradient-9);}.cls-19{opacity:0.63;}.cls-20{fill:url(#linear-gradient-10);}.cls-21{fill:url(#linear-gradient-11);}.cls-22{fill:url(#linear-gradient-12);}.cls-23{fill:url(#linear-gradient-13);}.cls-24{fill:url(#linear-gradient-14);}.cls-25,.cls-39{opacity:0.3;}.cls-25,.cls-33,.cls-39{mix-blend-mode:multiply;}.cls-25{fill:url(#linear-gradient-15);}.cls-26{fill:url(#linear-gradient-16);}.cls-27{fill:url(#linear-gradient-17);}.cls-28{fill:url(#linear-gradient-18);}.cls-29{fill:#26264f;}.cls-30{fill:url(#linear-gradient-19);}.cls-31{fill:url(#linear-gradient-20);}.cls-32{fill:url(#linear-gradient-21);}.cls-33{opacity:0.25;fill:url(#linear-gradient-22);}.cls-34{fill:#444b8c;}.cls-35{fill:url(#linear-gradient-23);}.cls-36{fill:url(#linear-gradient-24);}.cls-37{fill:url(#linear-gradient-25);}.cls-38{fill:url(#linear-gradient-26);}.cls-39{fill:url(#linear-gradient-27);}.cls-40{fill:url(#linear-gradient-28);}.cls-42{fill:url(#linear-gradient-29);}</style><linearGradient id="linear-gradient" x1="65.81" y1="2679.49" x2="1571.53" y2="2679.49" gradientTransform="translate(1122.83 92.79) rotate(-15.61)" gradientUnits="userSpaceOnUse"><stop offset="0" stop-color="#ffc444"/><stop offset="1" stop-color="#f36f56"/></linearGradient><clipPath id="clip-path"><path class="cls-1" d="M2004.27,3004l227.49,132.14s110.6-91.83,102.69-206.56c-16.14-234.1,190-231.9,276.5-243.9,130.42-18.09,237.47-90.91,131.15-211.44s144.86-247.89,359.7-246.75c210.25,1.11,333.55-372-121.28-416.17-271.62-26.39-370.15,220.61-449.56,333.52s-262,20-285.83,200.45c-20.37,154.11,25.31,301.65-99.2,343.41S1958.1,2821.6,2004.27,3004Z"/></clipPath><linearGradient id="linear-gradient-3" x1="3077.51" y1="1779.16" x2="2146.08" y2="3052.65" gradientUnits="userSpaceOnUse"><stop offset="0" stop-color="#fcb148"/><stop offset="0.05" stop-color="#fdba46"/><stop offset="0.14" stop-color="#ffc244"/><stop offset="0.32" stop-color="#ffc444"/><stop offset="0.48" stop-color="#fdb946"/><stop offset="0.78" stop-color="#f99c4d"/><stop offset="0.87" stop-color="#f8924f"/><stop offset="1" stop-color="#f8924f"/></linearGradient><linearGradient id="linear-gradient-4" x1="960.92" y1="933.39" x2="418.88" y2="2143.77" gradientTransform="translate(1122.83 92.79) rotate(-15.61)" gradientUnits="userSpaceOnUse"><stop offset="0" stop-color="#ff9085"/><stop offset="1" stop-color="#fb6fbb"/></linearGradient><clipPath id="clip-path-2"><path class="cls-2" d="M2376.8,2660.53l-285.26,32.39s-138-155.76-60.39-238.61-27.3-242.41-72.45-333.78c-122.5-247.94,186.8-333.17,57.1-664.16-34.5-88-132.25-244.39-79.25-343.6,60.38-113,158.15-58.89,190.91-147,51.2-137.69,186.13-229.22,317.55-154,129.7,74.19,105.67,323.88-93.6,589.6-120.17,205.13-106.26,248.51-51.85,346.73,38.11,68.8,187,230.08,110,343.79s-126.46,224.42-53.32,291.24C2467.56,2484.75,2376.8,2660.53,2376.8,2660.53Z"/></clipPath><linearGradient id="linear-gradient-5" x1="3872.78" y1="1844.98" x2="4866.86" y2="3481.5" gradientTransform="matrix(-0.98, 0.19, 0.19, 0.98, 6215.22, -1423.87)" gradientUnits="userSpaceOnUse"><stop offset="0" stop-color="#aa80f9"/><stop offset="1" stop-color="#6165d7"/></linearGradient><clipPath id="clip-path-3"><path class="cls-2" d="M2449.23,2796.81l-448.06,83c-38-55-93.3-159.08-5-203.63,122.8-61.94,81-278.8,29.37-348.4-63.94-86.15-208.42-289.66-20.15-388.23,156.74-82,275.38-104.9,244.94-309.93s60.7-354.21,258.31-379.78c208-26.92,322.79-317,508.91-263.3,324.29,93.6,151.62,591.69-177.94,789.92s-99.92,279.85-55.82,443.94c60.21,224-274.79,238.3-342.13,343.86C2388.9,2647,2421.4,2740.89,2449.23,2796.81Z"/></clipPath><linearGradient id="linear-gradient-6" x1="1438" y1="1894.15" x2="974.32" y2="1944.73" gradientUnits="userSpaceOnUse"><stop offset="0" stop-color="#444b8c"/><stop offset="1" stop-color="#26264f"/></linearGradient><linearGradient id="linear-gradient-7" x1="1846.54" y1="725.36" x2="700" y2="4628.66" xlink:href="#linear-gradient-6"/><linearGradient id="linear-gradient-8" x1="1567.28" y1="399.29" x2="1426.95" y2="4300.65" gradientTransform="matrix(1, 0, 0, 1, 0, 0)" xlink:href="#linear-gradient-4"/><linearGradient id="linear-gradient-9" x1="1416.91" y1="629.21" x2="69.41" y2="4278.68" gradientUnits="userSpaceOnUse"><stop offset="0" stop-color="#311944"/><stop offset="1" stop-color="#893976"/></linearGradient><linearGradient id="linear-gradient-10" x1="1323.42" y1="1274.59" x2="623.21" y2="1499.3" xlink:href="#linear-gradient-3"/><linearGradient id="linear-gradient-11" x1="1889.85" y1="577.6" x2="1264.74" y2="1956.69" gradientUnits="userSpaceOnUse"><stop offset="0" stop-color="#ffdb44"/><stop offset="1" stop-color="#feef06"/></linearGradient><linearGradient id="linear-gradient-12" x1="1774.86" y1="2033.77" x2="1654.25" y2="1374.86" xlink:href="#linear-gradient-3"/><linearGradient id="linear-gradient-13" x1="1519.13" y1="967.24" x2="2016.2" y2="2022.43" xlink:href="#linear-gradient-3"/><linearGradient id="linear-gradient-14" x1="1499.33" y1="740.18" x2="1749.27" y2="1676.93" xlink:href="#linear-gradient-11"/><linearGradient id="linear-gradient-15" x1="1372.9" y1="1035.53" x2="1868.96" y2="2088.59" xlink:href="#linear-gradient-3"/><linearGradient id="linear-gradient-16" x1="1864.33" y1="1516.88" x2="1866.67" y2="1417.47" xlink:href="#linear-gradient-9"/><linearGradient id="linear-gradient-17" x1="2547.46" y1="2409.45" x2="2562.66" y2="2239.88" xlink:href="#linear-gradient-9"/><linearGradient id="linear-gradient-18" x1="2505.66" y1="3063.15" x2="2519.69" y2="3322.78" xlink:href="#linear-gradient-9"/><linearGradient id="linear-gradient-19" x1="2124.04" y1="3083.78" x2="2138.08" y2="3343.4" xlink:href="#linear-gradient-9"/><linearGradient id="linear-gradient-20" x1="800.86" y1="2658.15" x2="1287.5" y2="2658.15" gradientTransform="translate(1249.56)" xlink:href="#linear-gradient-9"/><linearGradient id="linear-gradient-21" x1="785.4" y1="2295.39" x2="1135.99" y2="2884.25" gradientTransform="translate(1249.56)" xlink:href="#linear-gradient-9"/><linearGradient id="linear-gradient-22" x1="923.42" y1="2213.22" x2="1274.01" y2="2802.07" gradientTransform="translate(1249.56)" xlink:href="#linear-gradient-9"/><linearGradient id="linear-gradient-23" x1="1013.55" y1="1566.12" x2="1085.41" y2="1680.34" gradientTransform="translate(1249.56)" gradientUnits="userSpaceOnUse"><stop offset="0" stop-color="#e38ddd"/><stop offset="1" stop-color="#9571f6"/></linearGradient><linearGradient id="linear-gradient-24" x1="4279.01" y1="3709.82" x2="4107.09" y2="3595.79" gradientTransform="translate(1249.56)" xlink:href="#linear-gradient-9"/><linearGradient id="linear-gradient-25" x1="2766.85" y1="2564.13" x2="2594.94" y2="2450.11" gradientTransform="translate(1534.77 640.48) rotate(-13.66)" xlink:href="#linear-gradient-9"/><linearGradient id="linear-gradient-26" x1="2298.44" y1="1002.92" x2="2960.33" y2="2054.94" xlink:href="#linear-gradient-6"/><linearGradient id="linear-gradient-27" x1="2045.03" y1="1689.29" x2="2421.07" y2="2462.55" gradientTransform="matrix(1, 0, 0, 1, 0, 0)" xlink:href="#linear-gradient-23"/><linearGradient id="linear-gradient-28" x1="1314.02" y1="2166.01" x2="876.04" y2="3001.75" gradientTransform="matrix(1, 0, 0, 1, 0, 0)" xlink:href="#linear-gradient-5"/><linearGradient id="linear-gradient-29" x1="1007.93" y1="2794.82" x2="505.23" y2="3397.46" gradientTransform="matrix(1, 0, 0, 1, 0, 0)" xlink:href="#linear-gradient-23"/></defs><title>girl</title><g class="cls-3"><g id="Background"><rect class="cls-4" width="3710" height="3710"/></g><g id="Illustration"><path class="cls-5" d="M1661.66,455.26c-387.87,6.85-988,154.33-1160.72,533.31-60.33,132.36-56.24,327-48.07,716.14,2.4,114.39,6.38,281.12,34.34,488,58.08,429.74,97.61,722.29,247.25,892.63,374.94,426.84,1729.33,414.51,2307.7-353.94,315.5-419.19,364-1015.51,75.55-1508.33C2800.09,680.47,2180.93,446.09,1661.66,455.26Z"/><path class="cls-1" d="M2004.27,3004l227.49,132.14s110.6-91.83,102.69-206.56c-16.14-234.1,190-231.9,276.5-243.9,130.42-18.09,237.47-90.91,131.15-211.44s144.86-247.89,359.7-246.75c210.25,1.11,333.55-372-121.28-416.17-271.62-26.39-370.15,220.61-449.56,333.52s-262,20-285.83,200.45c-20.37,154.11,25.31,301.65-99.2,343.41S1958.1,2821.6,2004.27,3004Z"/><g class="cls-6"><path class="cls-7" d="M2004.27,3004l227.49,132.14s110.6-91.83,102.69-206.56c-16.14-234.1,190-231.9,276.5-243.9,130.42-18.09,222.6-85.81,148.93-207.25C2676.53,2341,2887,2226.34,3101.8,2227.48c210.25,1.11,333.55-372-121.28-416.17-271.62-26.39-370.15,220.61-449.56,333.52s-262,20-285.83,200.45c-20.37,154.11,25.31,301.65-99.2,343.41S1958.1,2821.6,2004.27,3004Z"/><g class="cls-8"><path class="cls-9" d="M2090.47,3082.3l5.22,1.87c1.17-3.23,118.78-326.93,332.14-612.66,196.55-263.23,517-547.18,927.11-405l1.82-5.25C3174.18,1998,2993.9,2012.4,2821,2104.13c-138.17,73.29-271.95,195.8-397.64,364.15C2209.49,2754.67,2091.63,3079.05,2090.47,3082.3Z"/><path class="cls-9" d="M2750.33,2145.59l5.11,2.17c72.38-170.08,263.68-360.3,265.61-362.2l-3.91-4C3015.21,1783.52,2823.14,1974.51,2750.33,2145.59Z"/><path class="cls-9" d="M2867.24,2087.62c220.17-6.82,343.15,129.24,344.36,130.62l4.16-3.68c-1.23-1.4-125.82-139.39-348.69-132.49Z"/><path class="cls-9" d="M2298.52,2665.91c185.21-195.23,525.42-71.89,528.63-70.41l2.65-4.88c-3-1.75-348.45-125.5-535.31,71.47Z"/><path class="cls-9" d="M2352.77,2569.11l5.27,1.75c54.2-162.94-45.39-354.57-46.41-356.49l-4.91,2.59C2307.73,2218.86,2406.22,2408.44,2352.77,2569.11Z"/><path class="cls-9" d="M2115.32,3033.64c58.12-84.1,224.47-80.8,226.14-80.76l.15-5.55c-7-.18-171-3.43-230.86,83.16Z"/><path class="cls-9" d="M2142.14,2956.62l5.21,1.94c28.25-75.73-31.31-213-50.88-258.08-2.77-6.37-5.16-11.87-5.39-12.94l-5.44,1.11c.3,1.51,1.88,5.17,5.73,14C2110.72,2747.28,2169.62,2883,2142.14,2956.62Z"/></g></g><path class="cls-10" d="M2356.27,2383.08c64,58.45,57.84,142.26,43.9,202.22-7.81,2.87-11.58,6.52-18.79,11.15-65.13,41.82-101.83,45.78-172.53,76.86-15.22,6.7-65.86,12.75-86.71,13.89l-38.91,1.52s-129.67-151.56-52.08-234.41-27.3-242.41-72.45-333.78c-27.72-56.12-22.43-90.66-29.3-112.91-72.81-235.57-167.88-277.8-144.49-368.95,25.81-100.62,149-78,182.92-185.92,38.23-121.93-93.25-232.68-31.28-340,10.62-18.39,22-37,44.71-54,56-42,120.73-24.48,146.2-93,51.2-137.7,186.13-229.22,317.55-154,129.7,74.19,105.67,323.88-93.6,589.6-120.17,205.13-106.26,248.51-51.85,346.73,38.11,68.8,187,230.08,110,343.79S2283.13,2316.26,2356.27,2383.08Z"/><g class="cls-11"><g class="cls-8"><path class="cls-12" d="M2247.71,2662.34l-5.54,1.31c-7.5-30.52-14.65-61.39-21.26-91.76-48.94-224.87-73.41-446.4-72.74-658.46.57-179.69,19.15-355.1,55.24-521.36,29-133.7,69.47-262.24,120.22-382,35.67-84.22,76-163.29,120-235,7.65-12.5,16.22-24.9,24.5-36.9,11-16,22.46-32.5,31.79-49.38l5,2.32c-9.47,17.11-21,33.75-32.07,49.84-8.24,11.93-16.77,24.27-24.34,36.65-43.79,71.49-84,150.32-119.61,234.31-50.62,119.51-91,247.74-119.92,381.14-36,165.92-54.56,341-55.13,520.31-.67,211.71,23.77,432.89,72.63,657.41C2233.08,2601,2240.22,2631.87,2247.71,2662.34Z"/><path class="cls-12" d="M2174,1596.71l-5.66-.34c22.24-226.4-202.11-548.74-204.38-552l4.78-3C1971,1044.67,2196.44,1368.49,2174,1596.71Z"/><path class="cls-12" d="M2171.36,2233.64l-5.68.27c-4.2-155,232.8-361.52,235.19-363.59l3.81,3.83C2402.3,1876.2,2167.23,2081,2171.36,2233.64Z"/><path class="cls-12" d="M2181.92,2321.21l-5.57,1.2c-21.95-98.68-108.88-220.93-244.78-344.24-6.83-6.2-6.83-6.2-7.06-7.18l5.55-1.26-2.78.63,2.34-1.54c.4.46,3,2.8,6,5.52C2072.27,2098.35,2159.75,2221.53,2181.92,2321.21Z"/><path class="cls-12" d="M2234.88,2606.45l-5.66-.32c10.46-111.41,158.19-207.28,159.68-208.23l3.14,4.32C2390.57,2403.17,2245.1,2497.6,2234.88,2606.45Z"/><path class="cls-12" d="M2239.78,2665.64c-52.24-74.43-129.57-136.76-236.4-190.56l2.81-4.67c107.65,54.22,185.62,117.11,238.38,192.26Z"/><path class="cls-12" d="M2300.25,1082.83l-5.62-.63c19.89-125.42,9.65-260.71,6.28-305.16-.81-10.76-1.09-14.55-.93-15.89l5.64.42c-.1,1,.37,7.17,1,15C2310,821.13,2320.23,956.84,2300.25,1082.83Z"/><path class="cls-12" d="M2235.61,1283.1l-5.13-2.15c54.92-108.2,295.32-192.26,305.52-195.79l1.85,4.95C2535.38,1091,2289.5,1176.92,2235.61,1283.1Z"/></g></g><path class="cls-13" d="M2403.36,2861.76c-19.64,1.27-64,188.1-144.2,72.22-20-28.95-57-135.34-200.06-112.94l-83.28,13c-35.69-57.35-58.7-118,20.38-157.9,122.8-61.94,81-278.8,29.37-348.4-63.94-86.15-208.42-289.66-20.15-388.22,156.74-82.06,275.38-104.91,244.94-309.94s60.7-354.21,258.31-379.79c208-26.91,322.79-317,508.91-263.29,324.29,93.6,151.62,591.7-177.94,789.92s-99.92,279.85-55.82,443.94a293.28,293.28,0,0,1,6.12,69.14c-5.68,181.29-181.24,246.25-283.46,413.54C2367.08,2931.23,2436.45,2859.62,2403.36,2861.76Z"/><g class="cls-14"><g class="cls-8"><path class="cls-12" d="M2225,2769.46h-9.88c6.37-681.92,363.21-1360.38,931.28-1770.61l6,7.39C2586.71,1414.75,2231.37,2090.37,2225,2769.46Z"/><path class="cls-12" d="M2262.23,2397.69l-9.7,1.84c-53.6-262.74-334-422.31-336.82-423.89l5.09-8C1923.66,1969.21,2207.79,2130.81,2262.23,2397.69Z"/><path class="cls-12" d="M2229.82,2644l-9.42-2.72c86.36-259.85,593-390.35,598.15-391.63l2.47,9C2816,2259.94,2314.54,2389.1,2229.82,2644Z"/><path class="cls-12" d="M2490.68,1763.26l-9.65-2c49.67-210.76-145.41-483.61-147.39-486.34l8.17-5.31C2343.81,1272.42,2541.26,1548.61,2490.68,1763.26Z"/><path class="cls-12" d="M2737.19,1396.08l-6.68-6.82c191.9-167.32,543.17-161.56,546.7-161.48l-.32,9.33C3273.41,1237,2926.09,1231.37,2737.19,1396.08Z"/></g></g><path class="cls-15" d="M1991.65,725.93l282.48,2347.92c4.24,35.21-20,66.76-54,70.14L1043.55,3273.16c-72.08,4.48-111.54-32.34-116-69.78L631,707.15c-4.42-37.23,30.94-70.94,103.32-70.94l1187.27,25C1956,661.79,1987.44,690.91,1991.65,725.93Z"/><path class="cls-16" d="M2044.61,721.89l284,2359.67c4.26,35.38-20.09,67.1-54.2,70.5L1054.67,3273.5c-38.25,3.8-73.29-23.86-77.77-61.49L678.67,702.88c-4.45-37.42,23.64-67.5,62.3-66.84l1233.29,20.8C2008.76,657.43,2040.37,686.69,2044.61,721.89Z"/><path class="cls-17" d="M2021.46,852.05l263.26,2187.88c4,33.05-18.82,62.63-50.75,65.74L1086.81,3217.18c-35.55,3.45-68.12-22.37-72.29-57.39L738.91,841.93c-4.15-34.84,21.93-63,57.84-62.65l1158.93,12.34C1987.94,792,2017.5,819.15,2021.46,852.05Z"/><path class="cls-18" d="M1406.3,720.27c1.5,12.56-7.51,22.61-20.15,22.45s-24.14-10.49-25.64-23.07,7.54-22.64,20.19-22.46S1404.79,707.71,1406.3,720.27Z"/><g class="cls-8"><path class="cls-4" d="M1823.13,2320.69c-234.85-434.2-585.67-564.17-691.3-1011.66-57.1-241.89-18.2-473.4,47.32-665.6L741,636c-38.66-.66-66.75,29.42-62.3,66.84L976.9,3212c4.48,37.63,39.52,65.29,77.77,61.49L2013.53,3178C2020.62,2789,1927.81,2514.24,1823.13,2320.69Z"/></g><g class="cls-19"><path class="cls-4" d="M2013.18,2067.36l-930.63,37.19a51.88,51.88,0,0,1-53.35-44l-.72-4.71a51.88,51.88,0,0,1,49.47-59.69l931.32-32.64a51.89,51.89,0,0,1,53.1,44l0,.15A51.89,51.89,0,0,1,2013.18,2067.36Z"/><path class="cls-4" d="M2040.64,2244l-929.44,45a51.88,51.88,0,0,1-53.79-44l-.73-4.8a51.88,51.88,0,0,1,49-59.68l930.13-40.41a51.88,51.88,0,0,1,53.54,44l0,.24A51.89,51.89,0,0,1,2040.64,2244Z"/><path class="cls-4" d="M2068.1,2420.71l-928.25,52.76a51.9,51.9,0,0,1-54.23-44l-.74-4.89a51.87,51.87,0,0,1,48.59-59.65l928.94-48.2a51.88,51.88,0,0,1,54,44l.05.33A51.87,51.87,0,0,1,2068.1,2420.71Z"/></g><path class="cls-20" d="M2129.51,1249.18c0,324.83-254,580.37-578.65,570.4-337.85-10.38-622-302.17-622-651.35s284.15-602.65,622-567.47C1875.51,634.56,2129.51,924.34,2129.51,1249.18Z"/><path class="cls-21" d="M2217.24,1221.17c0,324.84-254,580.37-578.65,570.4-337.86-10.38-622-302.17-622-651.35s284.15-602.65,622-567.47C1963.23,606.55,2217.24,896.33,2217.24,1221.17Z"/><path class="cls-22" d="M2191.75,1219.45c0,310.53-243,554.4-553.16,544.36-322.17-10.43-592.66-288.9-592.66-621.61s270.49-574.7,592.66-541.69C1948.72,632.28,2191.75,908.92,2191.75,1219.45Z"/><path class="cls-23" d="M2173.5,1218.22c0,300.29-235.16,535.82-534.91,525.76-311-10.44-571.76-279.4-571.76-600.37s260.78-554.76,571.76-523.27C1938.34,650.69,2173.5,917.93,2173.5,1218.22Z"/><path class="cls-24" d="M1635.52,722.5h0c16,1.51,28.86,15.87,28.86,32.07v55.29a813.59,813.59,0,0,1,95.82,16.62q35.38,8.32,70.28,19.79c13.94,4.59,23.44,18.66,22,33.18l-6.79,69.33c-1.8,18.39-20,29.2-37.1,21.56a400.51,400.51,0,0,0-47.15-17.56,427.62,427.62,0,0,0-88.92-16.62l-8.16-.67v158.34c83.21,23.28,144.32,54.6,183.81,94q59,58.8,58.89,146.72,0,95.14-65.12,152.53-65.57,57.77-184.21,64.85v61c0,16.2-12.92,28.83-28.89,28.19l-.51,0c-16-.63-29-14.33-29-30.6v-60.19l-12.86-.58a846,846,0,0,1-106.72-11.38,694.74,694.74,0,0,1-73.75-17c-14.5-4.19-24.46-18-23.13-32.86l8-89.12c1.73-19.26,21.08-30.47,39.4-23.25a576.73,576.73,0,0,0,64.86,21.29,568.53,568.53,0,0,0,103.69,17.33l.52-176.13q-119.82-29.65-179-87.81-59.22-58.44-59.28-149.43,0-94.09,64.26-145.14c42.57-33.81,103.09-50.63,181.17-50.59V749.18C1606.56,732.92,1619.54,721,1635.52,722.5Zm-29,211.35q-37,2.7-57.71,20.35t-20.71,47.53q0,28.26,19.15,47.23t59.27,30.24Zm51.19,318.93V1414.3q40.24.08,61.78-19.2t21.5-54.37q0-32-20-53.16T1657.75,1252.78Z"/><path class="cls-25" d="M1541.79,1291.76c18.07-178.5,182.12-254.07,160.71-418.26C1689.31,772.3,1612.61,687,1527,620.43c-259.53,27.22-460.21,242.11-460.21,523.18,0,321,260.78,589.93,571.76,600.37a540.05,540.05,0,0,0,88.36-4.32C1603.44,1616.77,1526.26,1445.11,1541.79,1291.76Z"/><path class="cls-26" d="M1881.21,1376.52a87.09,87.09,0,0,0,14.15-44.62c1.09-41.4-29.61-73.68-33.74-71.83-2.22,1,.6,13.13,2.18,18.5,3.29,11.19,6.83,12.28,6.53,17.42-.61,10.58-15.89,11-23.94,25-5.81,10.11-6.27,24.51,0,35.91C1856.78,1375.84,1880.22,1376.51,1881.21,1376.52Z"/><polygon class="cls-27" points="2537.06 2275.64 2525.26 2235.03 2574.53 2198.53 2605.24 2187.04 2587.05 2243.86 2537.06 2275.64"/><path class="cls-28" d="M2476.07,3093.51s26.95,67.79,19.86,97.86c28.93-.57,47.65-4.25,47.65-4.25s-11.63-30.92-13.9-46.24c-3.06-20.69-2.83-54.18-2.83-54.18Z"/><path class="cls-29" d="M2179,3252.07a21.26,21.26,0,0,1,5.09,12.46,20.1,20.1,0,0,1-1.52,8.34c-4.6,12.09-11.82,13.69-19.6,26.52-4.76,7.84-3.86,10.2-8.22,13.74-5.75,4.66-12.7,4.93-18.72,5a334,334,0,0,1-43.29-2.45q14.5-18.69,30.89-37.91,7.2-8.42,14.36-16.43l28.44-9.61Z"/><path class="cls-30" d="M2155.38,3114s-16.26,84.81,4.42,108.55c17.62,23.75-8.51,6.81-8.51,6.81l-31.2,27.23L2101.37,3289s17.23-83,12.64-115.95-6.9-55.15-6.9-55.15Z"/><path class="cls-31" d="M2094.09,2186.36s-43.66,39.07-43.66,199.93,20.68,510.18,20.68,510.18l33.1,250.08s34.31,1.22,57.3-5.67c20.68-94.22,54.38-253.61,38.29-386.89-6.89-144.78,57.46-326.33,57.46-326.33s55.15,183.84,94.22,275.77,113.45,379.89,120.34,400.58c45.71,4.14,65.24-8,65.24-8s-29.31-309.9-56.89-427.1-25.28-399.87-71.24-480.3C2305.52,2147.29,2094.09,2186.36,2094.09,2186.36Z"/><path class="cls-32" d="M2094.09,2186.36s-43.66,39.07-43.66,199.93,20.68,510.18,20.68,510.18l33.1,250.08s34.31,1.22,57.3-5.67c20.68-94.22,54.38-253.61,38.3-386.89-6.9-144.78,57.45-326.33,57.45-326.33s55.15,183.84,94.22,275.77,113.45,379.9,120.34,400.58c45.71,4.14,65.24-8,65.24-8s-29.31-309.9-56.89-427.1-25.28-399.87-71.24-480.3C2305.52,2147.29,2094.09,2186.36,2094.09,2186.36Z"/><path class="cls-33" d="M2320.92,2481.11c13.61,88.5,40.84,136.15,108.92,197.42,54.46,40.85,13.61,129.35,34,197.42,6.8,20.43,27.23,40.85,34,61.27,25.34,50.67,1.68,112.64,13.16,166.28,17.88-2.46,26-7.44,26-7.44s-29.31-309.9-56.89-427.1-25.28-399.87-71.24-480.3c-103.41-41.37-314.84-2.3-314.84-2.3s-43.66,39.07-43.66,199.93c0,13.05.14,27.36.39,42.61,45.33,40.12,138,49,195.21,4.56a27,27,0,0,1,10.93-4.95l.3-.85s.09.32.24.79C2283.52,2423.71,2315,2457.5,2320.92,2481.11Z"/><path class="cls-29" d="M2488.84,3217.1s-6.72,0-6.16,8.67-3,38.52,31.12,39.92,39.4-2.42,40.52-2.42-9-28.54-9-28.54l-10.92-14-29.38-3.08Z"/><path class="cls-34" d="M2564.54,3247.05c-.73-7.21-4.76-18.55-8.82-27.68-6-13.56-1.08-18.63-6.84-31-2-4.27-3.93-8.32-8.13-12.34-1-.92-10.39-9.63-24.11-9.18a24.45,24.45,0,0,0-11.35,2.66c-5.29,2.82-7.95,7.06-10.21,10.78-3.56,5.85-2.74,7.64-8.23,24.39a60.38,60.38,0,0,0-3,15.75c9,0,43.38,1.4,50.65,6.72s10.92,14.27,10.92,23.23,4.48,13.15,9,12.87C2558.32,3263,2566.27,3255.61,2564.54,3247.05Z"/><path class="cls-34" d="M2151,3210.66c7.69.12,13.33,6.24,17.59,21s24.67,27.8.85,24.68-41.13,30.63-49.64,43.11-31.35,23.57-30.79,11.37,10.65-17.89,13.49-30.37S2133.47,3210.38,2151,3210.66Z"/><path class="cls-4" d="M2555.14,2205.77c5.65-15.72,40.94-119-16.09-213.15-46.69-77.09-127.48-102.24-139-105.64-70.13-20.71-105.27,5.89-127.4-18.59-37.55-41.55,5-183.09,87.25-211.44,92.73-32,204,90.92,249.06,171.63,59.14,105.89,44.59,211.13,41.16,232.8A363.16,363.16,0,0,1,2605.24,2187Z"/><path class="cls-4" d="M2313,1637c-82.78-3.31-146.62-2-182.68,34-38.08,38.06.41,81-7.86,180.59-12.66,152.43-109.8,189.67-117.1,344.31a394.58,394.58,0,0,0,13.2,120.34c21.31,26.55,56.21,64,107.7,95.34,74.93,45.59,118.38,37.64,226,67.09,176,48.18,191.68,105.55,279,90.93,88.21-14.77,165.6-89,156.26-129.77-5.6-24.41-41.16-17.5-82.1-54.73-52.77-48-32.42-93.8-72.54-145.37-57.62-74.07-137.9-28.79-187-93-49.68-64.94-30-192.91,11.9-262.66,27.35-45.56,39.06-98.95,62.33-146.72a33.19,33.19,0,0,0,3.19-18.61c-3.78-31.11-55.64-48-94.92-60.37C2368.41,1639.52,2319.78,1637.24,2313,1637Z"/><path class="cls-35" d="M2243.25,1633.55l16.33-5s4.27,22.1,56.76,24.86c29.13,0,48-16.32,48-16.32l11.16,8.13s-24.48,30.57-63.4,29.79C2261.84,1674,2243.25,1633.55,2243.25,1633.55Z"/><path class="cls-36" d="M2276.5,1566.31c3.14-24.27,22.33-39.82,26.52-43.15,17.53-13.94,21.1-15.34,27.12-16.49l8.23-1.24.89,0c4.82.29,19.25,5.92,21.87,7.76,8.38,5.9,2.21,47.63-23.2,99.54q-1.5,6.59-3,13.18c22.14,3.9,27.62,7.89,27.8,11.08.38,6.91-23.87,15.72-46.34,16.3-28.17.72-58.09-11.41-57.52-20.45.23-3.67,5.55-8.18,26-12.62q4.8-6.73,9.59-13.49C2291.58,1603.26,2274.18,1584.2,2276.5,1566.31Z"/><path class="cls-37" d="M2311.33,1557.18c6.39-3.83,11.26,4.39,8.25,11.58s-13.13,11.68-19.27,7.39S2302.73,1562.32,2311.33,1557.18Z"/><path class="cls-38" d="M3139.68,1557.05c-84.13-91.28-279.86-66.25-388.43,7.07-50.45,34.06-76.34,74.3-135.95,77.68-45.31,2.57-117.4-14.47-155.37-63.56-4.78-6.18-23.91-32.12-52.64-64.83-12.66-14.42-25.26-28-44.78-31-5-.78-21.46-3.46-32.37,7.19-8.84,8.63-11,23.65-8.39,34.47,1.56,6.47,3.59,7.15,3.3,11.39-.81,11.9-22.49,17.08-21.28,23.07.86,4.28,12.14,2.72,14.08,8.09,2.13,5.89-10.26,11-15.58,25.78-10,6.67-16.27,23.29-18.45,45.52-3.21,32.68.07,59.23,6.27,79.23,29.81,96.29,51.14,165.16,102.75,203.62,68.33,50.92,129.86,3.91,303.68-3.53,238-10.18,297.35,70.5,382.9,15.3C3186.23,1863.62,3227,1651.83,3139.68,1557.05Z"/><path class="cls-4" d="M1891.27,1370.72c-2.12,19.92-9.3,108,51.47,182.4,56.78,69.5,137.19,83.39,152.13,85.65,72.3,10.92,103.48-20.24,128.75,1,42.87,36,20.09,182-57.52,221.38-87.5,44.34-214.5-62.18-270.19-136-73.07-96.81-73-203-72.61-225a363.37,363.37,0,0,1,27.29-130.62,64.58,64.58,0,0,1,40.68,1.15Z"/><path class="cls-39" d="M2633.84,2511.35c-21.17-21.7,2.13-65.46-29.13-98-29-30.2-61.87-5.8-108.58-31.78-59.92-33.32-43.41-94.33-100.64-127.12-41.16-23.59-60.5,1.77-124.48-10.6s-141.66-56.37-180.09-135.06c-16.32-33.44-22.34-66.68-23.14-96.39-28.73,51.32-58.52,100.5-62.44,183.5a394.58,394.58,0,0,0,13.2,120.34c21.31,26.55,56.21,64,107.7,95.34,74.93,45.59,118.38,37.64,226,67.09,176,48.18,191.68,105.55,279,90.93,56.38-9.44,108.21-43.17,135.93-76.92C2685.77,2528.9,2649.2,2527.1,2633.84,2511.35Z"/><path class="cls-40" d="M829.1,3245.59c-51.07-4.05-116.41-18.24-179.13-59.24-67.85-44.37-156.23-135.53-133.16-193,8.61-21.45,33.4-39.81,55.2-38.06,32.2,2.58,36,47.31,91.87,96,10.33,9,63.76,55.48,90.32,39.81,13.2-7.78,17.11-29.36,14.95-45.77-6.29-48-64.86-55.33-121.16-107.26-57.09-52.65-104.67-144.5-77.47-206.59,15.63-35.68,57-63.86,84.15-55.94,11.62,3.38,19,12.88,54.25,89.06,28.94,62.54,35.38,80.76,54,86.69,19.21,6.11,49.07-1.55,60.42-20.48,29.56-49.28-98.2-122.05-109.8-260-5.2-61.81,11.52-153.43,67.49-173.06,37.84-13.28,91.75,7,111.24,41.71,17.57,31.3-3.77,54.84,9.63,125.14,4.07,21.34,12.44,65.24,30.1,67.54,20.74,2.71,43.94-53.27,49.3-66.9,40.37-102.64-5.92-155.41,32.14-205.23,29.68-38.85,94.27-54.46,145.43-34.84,44.77,17.18,80.59,61.83,83,108.11,2.44,47.08-37.16,93.95-116.37,187.7-37.56,44.45-67.44,74.49-65.74,118.67.83,21.54,9.37,51.84,24.8,54.61,34.05,6.11,50.81-131,131.51-152.19,41.31-10.83,92.64,10.47,115.2,47.7,27.64,45.62,9.12,110.29-25.6,144.29-45.3,44.36-91.76,10.65-177,58.3-37.81,21.14-97.24,66.11-88.54,103.29,3.79,16.19,20.76,32,39.39,34.16,41.74,4.74,55.53-63.67,122.65-93.75,48.35-21.67,115.22-19.32,131.1,8,22.42,38.49-57.21,125.9-99.55,164.52C1182.55,3155.22,1061.84,3243.75,829.1,3245.59Z"/><path class="cls-41" d="M852,3223.66c-6.75-114.43,69-347.51,124.19-457.7,54-107.82,105.57-278.39,106.09-280.1l3.36,1c-.52,1.72-52.22,172.58-106.31,280.66-55,109.85-130.55,342.07-123.83,455.92Z"/><path class="cls-42" d="M708.72,3260.51c-38.46-53.39-94.87-149.73-105-278.62-4.17-53.11-12.31-156.84,51.15-246.32,31.63-44.6,98.7-110.56,144-91.53,29.16,12.24,47.27,58.81,39,94.22-8.3,35.71-38.48,39-71.34,99.61-12.16,22.42-26.05,48.74-15.38,63.61,8.91,12.41,33.4,14.67,51.76,7.23,37.92-15.39,26.07-62.61,67.07-96.47,29.16-24.09,77.76-35.41,98.73-15.68,18.21,17.13,15,57.14-1,83.81-25.77,42.7-72,30.17-102.09,76.86-13.36,20.71-22.86,52-11.17,64.37,13.33,14.1,52.55,1.91,77.68-13.68,33.19-20.57,34.41-42.46,56.27-45.2,24.38-3.06,54.85,20.16,59.62,45.84,6.67,36-37.46,74.77-72.4,91.62-44.74,21.58-78,8.92-99.84,38.4-8,10.82-15.36,28.48-8.79,39.2,9.39,15.29,43.3,10.24,65.81,6.89,54.8-8.16,69.89-28,89.52-18.38,19.88,9.78,30.13,42.8,21.54,66-4.78,12.87-19.13,32.81-90.26,45.29C903.84,3286.28,820.2,3292.43,708.72,3260.51Z"/></g></g></svg>